<?xml version="1.0" encoding="utf-8"?>
<svg xmlns="http://www.w3.org/2000/svg"
	xmlns:xlink="http://www.w3.org/1999/xlink"
	width="40px" height="40px" viewBox="0 0 40 40">
<g><path fillRule="evenodd" d="M 20 39C 30.48 39 39 30.48 39 20 39 9.52 30.48 1 20 1 9.52 1 1 9.52 1 20 1 30.48 9.52 39 20 39M 20 40C 8.95 40-0 31.05-0 20-0 8.95 8.95-0 20-0 31.05-0 40 8.95 40 20 40 31.05 31.05 40 20 40 20 40 20 40 20 40Z" fill="rgb(255,255,255)" opacity="0.70"/><text transform="translate(14.88,25.09)" class="style0"><tspan x="0.00" fill="rgb(255,255,255)"></tspan></text></g></svg>