<?xml version="1.0" encoding="utf-8"?>
<svg xmlns="http://www.w3.org/2000/svg"
	xmlns:xlink="http://www.w3.org/1999/xlink"
	width="41px" height="40px" viewBox="0 0 41 40">
<style type="text/css"><![CDATA[
.style0 {
  font-size: 16px;
  font-family: "FontAwesome";
  fill: rgb(255,255,255);
  text-transform: uppercase;
}
]]></style>
<path fillRule="evenodd" d="M 20.34 39C 30.82 39 39.34 30.48 39.34 20 39.34 9.52 30.82 1 20.34 1 9.87 1 1.34 9.52 1.34 20 1.34 30.48 9.87 39 20.34 39M 20.34 40C 9.3 40 0.34 31.05 0.34 20 0.34 8.95 9.3-0 20.34-0 31.39-0 40.34 8.95 40.34 20 40.34 31.05 31.39 40 20.34 40 20.34 40 20.34 40 20.34 40Z" fill="rgb(255,255,255)" opacity="0.40"/><text transform="translate(13.79,25.83)" class="style0"><tspan x="0.00" fill="rgb(255,255,255)"></tspan></text></svg>