<?xml version="1.0" encoding="utf-8"?>
<svg xmlns="http://www.w3.org/2000/svg"
	xmlns:xlink="http://www.w3.org/1999/xlink"
	width="41px" height="40px" viewBox="0 0 41 40">
<style type="text/css"><![CDATA[
.style0 {
  font-size: 16px;
  font-family: "FontAwesome";
  fill: rgb(255,255,255);
  text-transform: uppercase;
}
]]></style>
<path fillRule="evenodd" d="M 20.66 39C 31.13 39 39.66 30.48 39.66 20 39.66 9.52 31.13 1 20.66 1 10.18 1 1.66 9.52 1.66 20 1.66 30.48 10.18 39 20.66 39M 20.66 40C 9.61 40 0.66 31.05 0.66 20 0.66 8.95 9.61-0 20.66-0 31.7-0 40.66 8.95 40.66 20 40.66 31.05 31.7 40 20.66 40 20.66 40 20.66 40 20.66 40Z" fill="rgb(255,255,255)" opacity="0.40"/><text transform="translate(13.79,25.83)" class="style0"><tspan x="0.00" fill="rgb(255,255,255)"></tspan></text></svg>